<svg xmlns="http://www.w3.org/2000/svg" width="620.39" height="628.495" viewBox="0 0 620.39 628.495">
    <g data-name="Group 45" opacity=".24">
        <path data-name="Path 12" d="M467.224 158.984s-18.514 4.959-33.828 13.41-23.298 8.638-26.468 15.27-15.476 18.296-24.462 19.983-29.029 3.229-34.543 8.222-3.184 20.838-10.122 23.153-33.392 18.79-43.267 31.633-11.823 20.666-7.533 29.902 12.29 25.667 22.63 28.329 56.704 4.61 61.274 5.95 22.5-13.366 31.473-23.968 21.9-32.025 28.784-31.456 32.986-14.047 32.986-14.047l-39.578-.927-24.273-2.864s-10.34-10.369-13.22-10.428l1.004-9.205 2.982-6.909s27.632-11.199 30.41-11.882 21.625-8.71 41.754-26.136 11.458-35.426 3.997-38.03Z" fill="#fff"/>
        <path data-name="Path 13" d="M501.155 238.812s-13.846-.667-19.604 6.925-15.256 36.4-14.063 42.887-17.613 33.551-17.481 36.708-28.083 27.735-28.797 30.252 7.302-18.384 9.41-20.637-6.675 8.623-12.362 14.542-18.702 4.684-22.716 10.676-13.352 17.249-12.566 13.061 6.37-18.558 5.801-19.387-5.218-1.7-9.611 3.737-63.135-6.294-83.975-9.48-39.253-5.192-47.862 4.756-17.628 24.637-22.47 23.488-26.847-31.53-44.255-19.618c-12.779 8.743-73.44 22.268-110.41 29.792a18.234 18.234 0 0 0-11.3 28.337l10.65 15.194a18.229 18.229 0 0 0 19.429 7.206c25.703-6.55 84.298-21.617 99.617-26.762 19.793-6.647 42.03-10.908 55.673-11.723s21.092-7.124 26.47-7.562 38.598-2.881 61.575.464 61.781-5.76 66.247-5.166 7.533.93 7.116-3.24 14.02-.263 20.099-4.423 28.067-36.647 32.388-40.416 11.517-30.6 14.702-36.024 12.827-45.288 16.827-52.487 11.468-11.1 11.468-11.1Z" fill="#fff"/>
        <path data-name="Path 14" d="M561.043 207.166s-9.147 3.825-14.34 12.246-16.243 39.107-19.4 46.946-15.138 46.059-20.533 52.995-21.626 16.42-21.626 16.42l5.133-20.957a22.162 22.162 0 0 0 8.522-9.483c3.17-6.633 16.274-44.4 19.459-49.826s11.3-40.998 16.245-46.816 16.201-4.188 18.209-7.183 5.918-2.022 5.918-2.022Z" fill="#fff"/>
        <path data-name="Path 15" d="m548.887 254.024.729-.839c3.56-4.106 19.185-22.135 25.738-29.845 7.417-8.726 5.453-17.525 9.844-22.964s22.733-9.467 27.983-5.352a10.867 10.867 0 0 1 4.479 9.51s-18.76 7.564-23.953 15.985-48.777 52.037-48.777 52.037Z" fill="#fff"/>
        <path data-name="Path 33" d="M392.457 235.294c7.189-3.307 14.446-6.47 21.808-9.379q2.761-1.092 5.552-2.104c1.863-.675 3.746-1.29 5.573-2.023a79.849 79.849 0 0 0 10.455-5.54c6.739-4.13 13.177-8.739 19.513-13.466l4.743-3.567a23.963 23.963 0 0 0 4.314-3.96 52.39 52.39 0 0 0 6.904-9.526 28.203 28.203 0 0 0 3.718-11.019 14.88 14.88 0 0 0-3.16-10.833 14.107 14.107 0 0 0-9.924-5.27 33.803 33.803 0 0 0-11.617 1.022c-7.643 1.869-14.886 5.149-21.925 8.694-3.536 1.769-6.957 3.712-10.532 5.495a97.63 97.63 0 0 0-10.052 6.163c-6.562 4.409-12.95 9.077-19.625 13.38a54.284 54.284 0 0 1-10.659 5.39c-3.703 1.452-7.468 2.708-11.25 3.9s-7.586 2.293-11.398 3.367c-1.897.547-3.845 1.03-5.654 1.669-.92.313-1.814.72-2.722 1.077l-2.679 1.234c-7.066 3.47-13.85 7.548-20.618 11.632s-13.463 8.304-20.197 12.466l-10.12 6.213-2.534 1.544-2.464 1.604c-1.675 1.022-3.214 2.241-4.782 3.422a91.355 91.355 0 0 0-16.484 16.765 105.594 105.594 0 0 0-6.697 9.712 94.187 94.187 0 0 0-5.574 10.37l.047-.256a1.222 1.222 0 0 1-.106.483 1.726 1.726 0 0 1-.145.3 4.01 4.01 0 0 1-.327.504 7.817 7.817 0 0 1-.74.831 15.644 15.644 0 0 1-1.618 1.388 37.9 37.9 0 0 1-3.458 2.338c-2.366 1.438-4.807 2.723-7.28 3.931-4.958 2.408-9.962 4.616-14.96 6.887-10.007 4.498-20.09 8.845-30.327 12.81a313.221 313.221 0 0 1-31.22 10.486c-10.604 2.956-21.53 4.442-32.378 5.977q-16.3 2.26-32.636 4.195-16.328 2.015-32.679 3.807-32.688 3.642-65.414 7.022 32.697-3.653 65.36-7.564c21.768-2.673 43.557-5.197 65.264-8.272 10.848-1.565 21.716-3.074 32.256-6.045a312.389 312.389 0 0 0 31.093-10.541c10.205-3.99 20.257-8.354 30.24-12.876 4.98-2.279 10.003-4.515 14.906-6.912 2.452-1.203 4.86-2.487 7.176-3.901a36.996 36.996 0 0 0 3.347-2.274 14.928 14.928 0 0 0 1.497-1.294 6.713 6.713 0 0 0 .63-.705 3.048 3.048 0 0 0 .233-.36.776.776 0 0 0 .08-.158c.023-.027.028-.143.027-.01l.047-.255a94.924 94.924 0 0 1 5.626-10.543 107.03 107.03 0 0 1 6.743-9.84 92.697 92.697 0 0 1 16.664-17.04c1.59-1.204 3.151-2.448 4.856-3.494l2.505-1.641 2.534-1.542 10.132-6.185c6.74-4.14 13.456-8.32 20.24-12.414s13.596-8.14 20.751-11.63l2.718-1.244c.933-.363 1.844-.773 2.798-1.099 1.928-.669 3.826-1.13 5.732-1.674 3.808-1.062 7.605-2.158 11.376-3.326s7.518-2.416 11.187-3.843a53.166 53.166 0 0 0 10.496-5.268c6.64-4.254 13.053-8.907 19.639-13.31a98.196 98.196 0 0 1 10.189-6.207c3.515-1.739 6.984-3.695 10.53-5.456 7.08-3.541 14.374-6.824 22.138-8.7a34.616 34.616 0 0 1 11.91-1.008 17.402 17.402 0 0 1 5.794 1.71 13.484 13.484 0 0 1 4.637 3.88 15.498 15.498 0 0 1 2.773 5.368 16.584 16.584 0 0 1 .52 6.011 28.946 28.946 0 0 1-3.837 11.306 52.947 52.947 0 0 1-7.023 9.636 24.412 24.412 0 0 1-4.44 4.011l-4.77 3.527c-6.383 4.683-12.866 9.248-19.66 13.332a79.95 79.95 0 0 1-10.544 5.478c-1.855.727-3.738 1.323-5.6 1.981s-3.72 1.345-5.564 2.058c-7.381 2.846-14.666 5.948-21.878 9.198Z" fill="#161615"/>
        <path data-name="Path 34" d="M392.762 229.812a79.02 79.02 0 0 1-2.933 9.397c-.582 1.531-1.151 3.058-1.773 4.566a35.582 35.582 0 0 0-1.67 4.59 14.019 14.019 0 0 1 .668-4.922c.417-1.6.943-3.16 1.505-4.705a53.525 53.525 0 0 1 4.203-8.926Z" fill="#161615"/>
        <path data-name="Path 35" d="M346.95 219.778a263.275 263.275 0 0 1 15.788 10 123.79 123.79 0 0 1 7.552 5.548 43.94 43.94 0 0 1 3.567 3.122 23.232 23.232 0 0 1 3 3.745 27.841 27.841 0 0 1 2.046 4.284 4.057 4.057 0 0 0 1.134 1.647 6.76 6.76 0 0 0 1.942.858 53.46 53.46 0 0 1 8.545 3.962 29.323 29.323 0 0 1 3.909 2.679 13.648 13.648 0 0 1 1.714 1.687 14.207 14.207 0 0 1 1.31 2.003 47.422 47.422 0 0 1 3.563 8.657 54.405 54.405 0 0 0-4.132-8.321c-1.475-2.716-4.199-4.325-6.872-5.803a64.255 64.255 0 0 0-8.447-3.71 7.768 7.768 0 0 1-2.302-1.018 5.263 5.263 0 0 1-1.54-2.111 27.43 27.43 0 0 0-2.017-4.107 21.893 21.893 0 0 0-2.78-3.56 42.946 42.946 0 0 0-3.415-3.065c-2.384-1.966-4.898-3.79-7.378-5.659a394.585 394.585 0 0 0-7.571-5.444Z" fill="#161615"/>
        <path data-name="Path 36" d="m401.694 261.835 8.446 1.14c2.81.393 5.623.773 8.438 1.097 2.816.297 5.628.663 8.428.8.695.031 1.4.048 2.079.038l1.01-.06 1.086-.1q2.16-.148 4.294-.168c5.703.015 11.38.205 17.053.49 5.654.253 11.351.588 17.01 1.05-2.844.06-5.682.032-8.52.052l-8.522-.065c-5.68-.072-11.354-.271-17.009-.18q-2.12-.004-4.217.104l-1.037.079-1.119.05c-.735 0-1.457-.023-2.176-.069a94.185 94.185 0 0 1-8.504-1.002 229.745 229.745 0 0 1-16.74-3.256Z" fill="#161615"/>
        <path data-name="Path 37" d="M500.196 236.224a12.365 12.365 0 0 0-8.099-2.262 15.291 15.291 0 0 0-7.758 3.117c-4.613 3.389-7.718 8.377-9.81 13.67a100.114 100.114 0 0 0-4.63 16.583c-1.111 5.658-2.044 11.363-2.905 17.081l.001-.086a34.596 34.596 0 0 0 .483 3.43 28.374 28.374 0 0 0 .803 3.384 17.45 17.45 0 0 0 1.289 3.224 9.37 9.37 0 0 0 2.103 2.756 8.994 8.994 0 0 1-2.326-2.628 17.756 17.756 0 0 1-1.506-3.203 30.84 30.84 0 0 1-1.639-6.889l-.004-.034.005-.052c.638-5.756 1.382-11.51 2.49-17.217a84.383 84.383 0 0 1 4.66-16.823 39.542 39.542 0 0 1 4.18-7.744 25.092 25.092 0 0 1 6.273-6.184 15.372 15.372 0 0 1 8.26-2.934 12.226 12.226 0 0 1 8.13 2.811Z" fill="#161615"/>
        <path data-name="Path 38" d="M465.8 287.345c-.854 2.033-1.781 4.028-2.66 6.05l-2.758 5.998-5.61 11.943-2.809 5.96c-.458.997-.932 1.987-1.355 2.991-.222.5-.442 1.001-.629 1.5l-.302.748-.187.638a3.458 3.458 0 0 0 .401 1.347 14.275 14.275 0 0 0 .753 1.412c.547.934 1.171 1.834 1.796 2.734 1.227 1.817 2.571 3.56 3.896 5.322-1.558-1.563-3.006-3.227-4.425-4.925-.689-.868-1.365-1.745-1.986-2.675a14.865 14.865 0 0 1-.881-1.452 4.251 4.251 0 0 1-.591-1.768c.056-.32.115-.662.194-.968l.27-.8c.18-.54.391-1.051.6-1.565.407-1.035.85-2.044 1.283-3.06.89-2.02 1.821-4.017 2.753-6.014 1.906-3.973 3.851-7.925 5.905-11.82s4.116-7.79 6.343-11.596Z" fill="#161615"/>
        <path data-name="Path 39" d="M446.255 322.22c-2 1.243-3.998 2.482-5.946 3.793a54.826 54.826 0 0 0-5.622 4.149 6.442 6.442 0 0 0-.608.59 3.53 3.53 0 0 0-.52.616c-.307.418-.601.99-.902 1.476l-1.801 3.027c-1.2 2.016-2.38 4.045-3.513 6.096s-2.21 4.13-3.267 6.21a43.804 43.804 0 0 0-2.703 6.391 32.287 32.287 0 0 0-.946 6.825 42.294 42.294 0 0 0 .208 6.96l-.035-.108a14.482 14.482 0 0 1 1.158 5.492 10.63 10.63 0 0 1-.357 2.775 8.245 8.245 0 0 1-1.211 2.49 8.997 8.997 0 0 0 1.117-5.247 14.107 14.107 0 0 0-.488-2.655 15.274 15.274 0 0 0-.922-2.515l-.025-.053-.009-.054a36.817 36.817 0 0 1 .333-14.252 65.773 65.773 0 0 1 6.043-12.88 216.741 216.741 0 0 1 3.622-6.077 103.976 103.976 0 0 1 1.89-2.984c.338-.497.6-.972 1.007-1.494a4.538 4.538 0 0 1 .645-.706 7.276 7.276 0 0 1 .686-.61 45.061 45.061 0 0 1 5.926-3.935c2.05-1.166 4.118-2.296 6.24-3.32Z" fill="#161615"/>
        <path data-name="Path 40" d="M431.01 328.995a34.781 34.781 0 0 0-8.941 1.411 14.05 14.05 0 0 0-4 1.874 19.44 19.44 0 0 1-4.037 2.312c-2.827 1.23-5.748 2.122-8.613 3.125a46.382 46.382 0 0 0-8.259 3.486 7.953 7.953 0 0 0-1.672 1.256 8.478 8.478 0 0 0-1.17 1.757c-.73 1.308-1.406 2.666-2.07 4.024-1.338 2.72-2.56 5.495-3.823 8.254a159.344 159.344 0 0 0-3.519 8.396 72.762 72.762 0 0 0-1.556 4.276 15.431 15.431 0 0 0-.926 4.43 13.86 13.86 0 0 1 .583-4.528 74.472 74.472 0 0 1 1.277-4.4c.965-2.897 2.05-5.748 3.186-8.579 1.119-2.839 2.379-5.613 3.673-8.384.658-1.38 1.314-2.758 2.047-4.115a9.648 9.648 0 0 1 1.337-2.038 9.038 9.038 0 0 1 1.933-1.507 47.345 47.345 0 0 1 8.57-3.5c2.898-.948 5.793-1.868 8.608-2.919a18.359 18.359 0 0 0 3.951-2.056 14.472 14.472 0 0 1 4.302-1.807 31.881 31.881 0 0 1 9.12-.768Z" fill="#161615"/>
        <path data-name="Path 41" d="M418.913 280.48c-9.005 8.418-20.086 14.392-31.613 18.72a120.173 120.173 0 0 1-36.239 7.002 148.717 148.717 0 0 1-18.497-.665l-4.59-.58c-1.533-.185-3.06-.393-4.576-.689l-4.553-.81c-1.51-.303-3.005-.685-4.512-1.022a175.07 175.07 0 0 1-17.73-5.174c-2.898-1.034-5.747-2.206-8.62-3.3-2.829-1.208-5.634-2.467-8.44-3.72a200.705 200.705 0 0 0 35.02 11.178 165.433 165.433 0 0 0 18.124 2.895 148.106 148.106 0 0 0 18.327.54 122.503 122.503 0 0 0 35.94-6.628 110.983 110.983 0 0 0 16.767-7.427 84.024 84.024 0 0 0 15.192-10.32Z" fill="#161615"/>
        <path data-name="Path 42" d="M426.969 270.91a139.551 139.551 0 0 1-9.229 18.983 165.933 165.933 0 0 1-11.768 17.565l-3.34 4.108c-1.142 1.345-2.35 2.635-3.522 3.953-.597.65-1.167 1.325-1.784 1.956l-1.88 1.867c-1.266 1.229-2.466 2.528-3.825 3.66a92.23 92.23 0 0 1-17.182 12.249c2.85-2.074 5.894-3.829 8.534-6.148 1.35-1.115 2.793-2.112 4.07-3.314l3.87-3.544a141.642 141.642 0 0 0 13.993-15.607 187.645 187.645 0 0 0 11.944-17.267c1.84-2.981 3.61-6.007 5.282-9.096 1.736-3.06 3.311-6.197 4.837-9.364Z" fill="#161615"/>
        <path data-name="Path 43" d="M502.275 239.263c-.474 5.027-1.124 10.028-1.85 15.024-.347 2.5-.77 4.988-1.227 7.481-.108.623-.25 1.247-.383 1.875-.06.308-.163.635-.244.952a2.49 2.49 0 0 1-.574 1.14 2.422 2.422 0 0 1-2.416.5 3.77 3.77 0 0 1-1.78-1.406 11.151 11.151 0 0 1-1.554-3.694 29.814 29.814 0 0 1-.67-3.802 37.385 37.385 0 0 1-.225-7.662 14.37 14.37 0 0 1 .815-3.81 6.272 6.272 0 0 1 .97-1.756 5.543 5.543 0 0 1 1.546-1.262 32.682 32.682 0 0 0 6.055-4.456 14.167 14.167 0 0 1-2.678 2.675 76.916 76.916 0 0 1-3 2.323 4.996 4.996 0 0 0-1.315 1.174 5.465 5.465 0 0 0-.769 1.58 13.444 13.444 0 0 0-.582 3.597 42.338 42.338 0 0 0 .46 7.423 31.364 31.364 0 0 0 .678 3.63 9.973 9.973 0 0 0 1.369 3.233 2.486 2.486 0 0 0 1.108.937 1.1 1.1 0 0 0 1.107-.206 6.628 6.628 0 0 0 .446-1.42l.404-1.826c.529-2.448.962-4.93 1.459-7.403l1.394-7.428Z" fill="#161615"/>
        <path data-name="Path 44" d="M497.99 266.402c-1.884 12.306-3.648 24.577-5.915 36.85-1.14 6.115-2.412 12.204-3.67 18.295l-1.946 9.13c-.339 1.525-.665 3.028-1.064 4.577-.06.2-.099.39-.168.591l-.284.62c-.2.388-.421.708-.632 1.066-.45.656-.905 1.307-1.386 1.927a178.154 178.154 0 0 1-12.405 14.032c-4.585 4.257-8.965 8.613-13.478 12.91-8.986 8.598-17.844 17.332-27.125 25.62 4.483-4.308 8.83-8.754 13.208-13.169l13.19-13.193a645.66 645.66 0 0 1 13.329-13.033 178.147 178.147 0 0 0 12.206-13.982 12.167 12.167 0 0 0 2.274-3.749c.388-1.46.734-2.992 1.078-4.5l2.001-9.101 3.857-18.244c1.32-6.072 2.319-12.186 3.461-18.314Z" fill="#161615"/>
        <path data-name="Path 45" d="M506.144 313.697a12.77 12.77 0 0 1-3.08-2.079 48.045 48.045 0 0 1-2.72-2.546c-1.76-1.76-3.376-3.637-4.964-5.557l-.145-.174.07-.242c1.271-4.474 2.656-8.913 4.04-13.354l2.088-6.658 2.202-6.62c1.487-4.412 2.936-8.823 4.71-13.16a57.674 57.674 0 0 1 6.952-12.127 73.885 73.885 0 0 0-6.134 12.45c-.79 2.164-1.468 4.392-2.195 6.596l-2.15 6.629-2.107 6.645-2.17 6.627c-1.44 4.42-2.857 8.846-4.365 13.245l-.076-.415c1.469 1.964 3.053 3.865 4.653 5.734.806.931 1.642 1.836 2.517 2.701a14.273 14.273 0 0 0 2.874 2.305Z" fill="#161615"/>
        <path data-name="Path 46" d="M525.41 263.192a28.197 28.197 0 0 1-8.002-9.937 11.478 11.478 0 0 1-.975-6.383 22.5 22.5 0 0 1 .795-3.141l.947-3.066c2.616-8.142 5.426-16.22 8.644-24.155.81-1.98 1.641-3.957 2.545-5.906a47.256 47.256 0 0 1 3.011-5.752 19.525 19.525 0 0 1 4.543-4.756 27.533 27.533 0 0 1 5.625-3.35 19.373 19.373 0 0 1 6.38-1.693 10.426 10.426 0 0 1 6.541 1.5c.449.357.928.702 1.343 1.077.38.394.781.767 1.143 1.178a18.38 18.38 0 0 1 2.014 2.634 11.79 11.79 0 0 1 1.376 3.08 6.371 6.371 0 0 1 .066 3.545l-.08.273-.323.097a20.999 20.999 0 0 0-3.52 1.377 6.62 6.62 0 0 0-1.476.987 1.943 1.943 0 0 0-.46.623c-.136.258-.264.566-.396.852-1.023 2.365-1.945 4.804-2.818 7.244a68.992 68.992 0 0 0-2.3 7.398 11.567 11.567 0 0 0-.288 1.84 11.846 11.846 0 0 0 .185 1.86 19.022 19.022 0 0 0 .826 3.718 6.118 6.118 0 0 0 .838 1.618 3.274 3.274 0 0 0 .604.631l.168.134c.002-.012-.078-.023-.087-.015a.647.647 0 0 0 .18-.162 14.842 14.842 0 0 0 1.655-3.378c.919-2.42 1.732-4.896 2.507-7.38 1.546-4.972 2.941-9.994 4.312-15.023q-1.725 7.628-3.819 15.17c-.71 2.51-1.43 5.02-2.33 7.485a14.928 14.928 0 0 1-1.73 3.64 1.18 1.18 0 0 1-.584.42.693.693 0 0 1-.552-.094l-.218-.164a4.038 4.038 0 0 1-.76-.758 7.01 7.01 0 0 1-.99-1.82 19.91 19.91 0 0 1-.938-3.881 12.45 12.45 0 0 1-.232-2.022 12.306 12.306 0 0 1 .274-2.024 69.372 69.372 0 0 1 2.204-7.566c.867-2.47 1.774-4.917 2.806-7.342.14-.306.258-.602.422-.919a3.202 3.202 0 0 1 .689-.941 7.724 7.724 0 0 1 1.75-1.192 22.141 22.141 0 0 1 3.74-1.489l-.404.37a5.403 5.403 0 0 0-.123-2.775 10.543 10.543 0 0 0-1.248-2.735 17.086 17.086 0 0 0-1.887-2.438c-.345-.387-.728-.739-1.091-1.111-.38-.335-.776-.607-1.159-.919a9.097 9.097 0 0 0-5.734-1.26 18.278 18.278 0 0 0-5.952 1.554 26.277 26.277 0 0 0-5.372 3.158 18.327 18.327 0 0 0-4.287 4.428 46.276 46.276 0 0 0-2.954 5.572c-.903 1.919-1.742 3.88-2.56 5.845a391.107 391.107 0 0 0-9.002 23.945c-.65 2.014-1.412 4.06-1.85 6.076a10.96 10.96 0 0 0 .764 6.114 22.762 22.762 0 0 0 3.237 5.443 34.242 34.242 0 0 0 4.366 4.661Z" fill="#161615"/>
        <path data-name="Path 47" d="m552.304 239.65-5.148 22.777-6.105 22.544-1.517 5.641c-.49 1.881-1.027 3.76-1.665 5.6-1.24 3.694-2.566 7.356-3.935 11.002s-2.81 7.266-4.334 10.855a75.452 75.452 0 0 1-5.193 10.524l-.032.048-.058.041L476.4 363.33l-11.98 8.662c-4.014 2.853-8.094 5.62-12.149 8.418-8.132 5.573-16.284 11.11-24.546 16.494-4.142 2.678-8.268 5.367-12.584 7.812a32.863 32.863 0 0 1-3.382 1.696 24.483 24.483 0 0 1-3.645.998c-2.439.499-4.883.856-7.326 1.218-9.777 1.352-19.561 2.464-29.328 3.736l-29.294 3.956c-9.801 1.235-19.648 1.964-29.493 2.5s-19.703.835-29.558 1.08c-9.85.268-19.715.356-29.525.913a41.339 41.339 0 0 0-7.229.961c-2.362.587-4.69 1.357-7.005 2.18-4.627 1.656-9.23 3.44-13.902 5.032a157.374 157.374 0 0 1-28.735 7.094c-4.83.813-9.629 1.902-14.386 3.16-4.767 1.222-9.496 2.594-14.227 3.958-9.441 2.802-18.835 5.772-28.22 8.767q-28.125 9.1-56.003 18.94 27.788-10.087 55.83-19.462 14.029-4.658 28.184-8.94c4.734-1.38 9.462-2.77 14.24-4.011 4.764-1.274 9.577-2.386 14.462-3.223a156.407 156.407 0 0 0 28.556-7.142c4.65-1.6 9.232-3.393 13.878-5.072 2.324-.836 4.677-1.622 7.093-2.233a42.482 42.482 0 0 1 7.396-1.01c9.865-.592 19.715-.71 29.563-1.009 9.844-.277 19.69-.614 29.52-1.173s19.646-1.324 29.394-2.584c4.87-.61 9.75-1.391 14.633-2.046l14.66-1.921c9.777-1.245 19.58-2.327 29.329-3.643 2.429-.352 4.868-.698 7.255-1.183a23.553 23.553 0 0 0 3.473-.939 32.025 32.025 0 0 0 3.22-1.606c4.266-2.399 8.408-5.079 12.543-7.74 8.265-5.347 16.432-10.859 24.576-16.402 4.063-2.785 8.149-5.534 12.175-8.379l12.002-8.62 48.013-34.484-.088.09a75.236 75.236 0 0 0 5.148-10.382c1.533-3.57 2.964-7.185 4.373-10.81s2.761-7.273 4.029-10.945c.653-1.83 1.203-3.69 1.71-5.57l1.576-5.62 6.306-22.475Z" fill="#161615"/>
        <path data-name="Path 48" d="M498.436 280.296a6.064 6.064 0 0 1 1.93-2.273 5.986 5.986 0 0 1 2.734-1.188 6.595 6.595 0 0 1-4.664 3.46Z" fill="#161615"/>
        <path data-name="Path 49" d="M502.171 250.967a32.23 32.23 0 0 1 6.386-2.851 31.823 31.823 0 0 1 6.812-1.578 36.276 36.276 0 0 1-13.196 4.432Z" fill="#161615"/>
        <path data-name="Path 50" d="M566.043 244.314a14.86 14.86 0 0 1-3.225-2.79 16.193 16.193 0 0 1-2.322-3.601 21.81 21.81 0 0 1-1.45-4.044 22.299 22.299 0 0 1-.658-4.269l-.003-.082.051-.078a205.197 205.197 0 0 1 12.369-17.204c2.2-2.768 4.501-5.46 6.956-8.02a66.29 66.29 0 0 1 7.85-7.211 29.132 29.132 0 0 1 9.502-5.003 24.12 24.12 0 0 1 10.752-.738c3.533.68 7.147 1.933 9.684 4.852a7.118 7.118 0 0 1 .791 1.249 13.742 13.742 0 0 1 .48 1.305 12.606 12.606 0 0 1 .544 2.713 14.833 14.833 0 0 1-.502 5.485l-.052.184-.177.123c-2.053 1.411-4.091 2.851-6.056 4.363a31.868 31.868 0 0 0-2.813 2.371 45.255 45.255 0 0 0-2.517 2.716 40.61 40.61 0 0 0-4.372 5.966 9.104 9.104 0 0 0-.742 1.617 4.851 4.851 0 0 0-.138 1.708 7.67 7.67 0 0 0 1.097 3.344l-.602-.012 7.012-9.212 7.052-9.183-6.716 9.432-6.755 9.402-.316.44-.286-.45a8.404 8.404 0 0 1-1.298-3.695 5.644 5.644 0 0 1 .133-2.014 9.964 9.964 0 0 1 .781-1.802 41.429 41.429 0 0 1 4.36-6.205 46.173 46.173 0 0 1 2.53-2.833 27.868 27.868 0 0 1 2.884-2.5c1.99-1.546 4.024-3.005 6.087-4.442l-.23.307a13.69 13.69 0 0 0 .411-4.99 11.333 11.333 0 0 0-.507-2.458 12.488 12.488 0 0 0-.438-1.172 5.927 5.927 0 0 0-.632-.97 11.684 11.684 0 0 0-4.025-2.877 21.31 21.31 0 0 0-4.89-1.451 23.603 23.603 0 0 0-10.167.673 27.813 27.813 0 0 0-9.123 4.738 65.055 65.055 0 0 0-7.753 7.033 145.511 145.511 0 0 0-7.004 7.858c-4.506 5.396-8.694 11.073-12.666 16.878l.047-.16a22.064 22.064 0 0 0 1.81 8.183 16.417 16.417 0 0 0 2.17 3.621 14.712 14.712 0 0 0 3.082 2.905Z" fill="#161615"/>
        <path data-name="Path 51" d="M598.707 231.973c-4.862 7.623-9.684 15.248-15.173 22.493-2.528 3.627-4.896 7.537-7.28 11.35l-7.088 11.543-7.175 11.496c-2.42 3.818-4.762 7.674-7.342 11.415a22.428 22.428 0 0 1-4.773 4.945 87.691 87.691 0 0 1-5.407 4.13 120.266 120.266 0 0 1-11.547 7.123c3.822-2.41 7.587-4.904 11.154-7.657 1.795-1.361 3.56-2.758 5.243-4.243a21.49 21.49 0 0 0 4.47-4.881c4.839-7.594 9.51-15.34 14.229-23.037l7.196-11.486 3.646-5.718c1.237-1.904 2.44-3.783 3.87-5.63 2.85-3.458 5.44-7.173 8.08-10.831Z" fill="#161615"/>
        <path data-name="Path 52" d="M221.647 348.517a61.707 61.707 0 0 0-.95 7.456c-.108 1.243-.141 2.496-.216 3.74l-.003 3.744a71.888 71.888 0 0 0 1.834 14.792 70.285 70.285 0 0 0 2.015 7.172 71.813 71.813 0 0 0 2.897 6.877 73.414 73.414 0 0 0 7.924 12.708q-1.25-1.409-2.481-2.843a27.413 27.413 0 0 1-2.36-2.958l-2.132-3.14c-.714-1.045-1.242-2.2-1.875-3.3a57.202 57.202 0 0 1-3.17-6.907 67.659 67.659 0 0 1-2.13-7.305 61.029 61.029 0 0 1-1.55-15.092 56.31 56.31 0 0 1 2.197-14.944Z" fill="#161615"/>
        <path data-name="Path 53" d="M413.985 182.565a81.498 81.498 0 0 1 11.364 12.402 56.857 56.857 0 0 1 4.572 7.104 22.988 22.988 0 0 1 2.845 7.941 33.787 33.787 0 0 0-3.752-7.412q-2.233-3.5-4.749-6.831a269.422 269.422 0 0 0-5.086-6.621Z" fill="#161615"/>
        <path data-name="Path 54" d="M412.493 187.102c2.44 3.84 4.636 7.77 6.89 11.666 2.237 3.91 4.48 7.78 6.887 11.632a51.285 51.285 0 0 1-8.058-10.96 74.712 74.712 0 0 1-5.719-12.338Z" fill="#161615"/>
    </g>
</svg>