<svg xmlns="http://www.w3.org/2000/svg" width="421.028" height="411.311" viewBox="0 0 421.028 411.311">
    <g data-name="Group 46" opacity=".225">
        <path data-name="Path 7" d="M406.205 154.757a18.73 18.73 0 0 0-23.661-16.17c-30.568 8.524-87.018 25.043-106.625 35.992-27.418 15.308-72.632 40.613-82.5 42.928s-23.619 9.467-40.35 7.813-14.697 1.699-30.495 2.23-36.798-1.023-41.148 1.09-7.007 6.604-16.484 10.645-18.037 7-22.937 11.674-23.183 20.999-22.582 22.207 6.969 2.198 10.804-.126 26.694-18.015 33.655-22.101 15.565-9.566 23.08-9.925 37.295.986 45.89 1.541 42.343-4.957 54.792-6.474 26.81-1.177 23.536 1.856-37.129 10.316-38.799 11.46 4.531 3.151 6.42 4.755 13.804 8.935 13.804 8.935-6.655 7.835-11.656 11.259-28.72 20.946-32.545 29.555-6.543 15.37.292 22.104 20.442-2.168 20.442-2.168 18.054-16.054 19.312-19.172 8.697-10.516 12.325-24.642 8.782-21.836 12.401-20.622 12.726 17.32 16.881 9.688 18.368-27.646 27.174-30.624 13.968-1.389 13.968-1.389l13.845-24.512a63.07 63.07 0 0 1 40.404-25.67c27.274-4.737 66.287 1.893 76.62-3.978 5.323-3.025 5.358-16.14 4.137-28.159Z" fill="#fff"/>
        <path data-name="Path 8" d="M185.251 200.572s-25.769 10.901-26.955 11.75 3.163 1.756 3.971 2.443 2.642 1.546 3.848.944 4.651-4.653 6.338-5.545 15.041-6.757 12.798-9.592Z" fill="#fff"/>
        <path data-name="Path 9" d="M166.906 194.523s-5.725.718-8.597 2.458a7.363 7.363 0 0 1-5.184 1.177s5.72 2.3 7.865.867 3.462-3.802 5.916-4.502Z" fill="#fff"/>
        <path data-name="Path 10" d="M126.176 216.194s-14.586-3.089-23.414-.355-31.195 9.079-33.192 9.242-6.776 6.336-11.589 8.991-19.647 11.911-20.964 14.28-9.34 8.807-9.34 8.807L4.142 276.93l-2.58-.796s2.739 5.813 5.337 6.858 11.114.603 18.47-4.774c0 0-6.908-1.449-7.584-6.673 0 0-.315-1.819 1.854-4.008s8.909-7.932 8.909-7.932l5.295-4.957s7.897-8.02 9.664-9.004 26.337-16.226 26.337-16.226 5.656-4.652 8.168-4.69 47.77-6.236 49.561-6.886-1.397-1.647-1.397-1.647Z" fill="#fff"/>
        <path data-name="Path 11" d="M85.176 248.952a152.191 152.191 0 0 0-11.993 11.201c-3.838 4.337-12.563 10.412-14.898 10.604s-2.39 1.536-3.096 1.09a15.463 15.463 0 0 1-2.216-2.501 31.941 31.941 0 0 1 3.57-1.464c1.957-.663 9.58-12.012 9.58-12.012Z" fill="#fff"/>
        <path data-name="Path 16" d="M411.144 110.092c-20.191 6.952-40.44 13.736-60.86 20.002-10.219 3.1-20.464 6.13-30.847 8.675a208.172 208.172 0 0 1-31.679 4.85c-5.321.471-10.657.784-15.947 1.36a60.666 60.666 0 0 0-7.848 1.276 22.6 22.6 0 0 0-7.241 2.982c-2.22 1.41-4.299 3.104-6.474 4.663-1.073.8-2.188 1.544-3.281 2.323l-3.36 2.204c-4.538 2.859-9.252 5.392-14 7.853-9.547 4.83-19.35 9.11-29.259 13.111-4.933 2.05-9.939 3.917-14.916 5.857-4.992 1.898-10.015 3.713-15.022 5.573l-.012.004-.019.005-12.355 3.612c-2.064.613-4.11 1.178-6.19 1.83-2.075.612-4.166 1.113-6.25 1.651a84.185 84.185 0 0 0-12.243 3.784c-3.926 1.683-7.748 3.657-11.502 5.714l-.07.038-.08.008c-4.876.461-9.75 1.188-14.584 2.059s-9.636 1.947-14.392 3.184c-4.762 1.215-9.461 2.682-14.09 4.318a138.207 138.207 0 0 0-13.593 5.67l.025-.013c-2.43 1.606-4.791 3.362-7.135 5.118-2.359 1.745-4.635 3.597-6.92 5.436L37.27 244.247l-6.869 5.511-3.433 2.757a16.537 16.537 0 0 1-1.796 1.288l-1.831 1.22c-2.436 1.634-4.825 3.34-7.103 5.19a36.093 36.093 0 0 0-3.251 2.96 9.724 9.724 0 0 0-2.463 3.598 9.742 9.742 0 0 1 2.434-3.626 36.4 36.4 0 0 1 3.232-2.989c2.263-1.873 4.641-3.604 7.064-5.262l1.823-1.236a16.342 16.342 0 0 0 1.765-1.29l3.408-2.787 6.816-5.572 13.641-11.149c2.266-1.868 4.544-3.72 6.899-5.477 2.344-1.773 4.694-3.528 7.16-5.164l.01-.009.011-.01a138.663 138.663 0 0 1 13.635-5.738c4.644-1.66 9.353-3.144 14.128-4.377q7.153-1.882 14.43-3.24c4.853-.89 9.725-1.633 14.65-2.113l-.15.044c3.77-2.085 7.592-4.07 11.558-5.786a84.825 84.825 0 0 1 12.345-3.861c2.079-.542 4.168-1.053 6.211-1.658 2.017-.64 4.112-1.228 6.164-1.846l12.376-3.658-.031.01c4.995-1.874 10.01-3.703 14.994-5.615 4.964-1.952 9.959-3.833 14.88-5.898 9.88-4.02 19.694-8.223 29.214-13.018 4.739-2.433 9.44-4.944 13.951-7.768l3.343-2.178c1.086-.767 2.197-1.496 3.264-2.293 2.166-1.543 4.243-3.226 6.536-4.675a23.442 23.442 0 0 1 7.496-3.059 61.532 61.532 0 0 1 7.951-1.268c5.326-.562 10.653-.855 15.97-1.312a207.607 207.607 0 0 0 31.595-4.737c10.365-2.508 20.617-5.502 30.841-8.572q30.65-9.248 61.005-19.492Z" fill="#161615"/>
        <path data-name="Path 17" d="M1.364 273.717c2.918-2.574 5.924-5.04 8.985-7.444a83.932 83.932 0 0 1 4.706-3.48c.41-.275.817-.547 1.269-.8.116-.062.23-.123.368-.187a1.439 1.439 0 0 1 .252-.087.7.7 0 0 1 .252-.015.549.549 0 0 1 .271.112c.126.105.066.075.107.116a1.557 1.557 0 0 1 .158.295l.063.226a3.631 3.631 0 0 1 .069.417 12.682 12.682 0 0 1-.136 3.034 11.547 11.547 0 0 1-.839 2.92 4.459 4.459 0 0 1-.899 1.33l-1.022 1.047c-1.374 1.378-2.732 2.772-4.173 4.087a69.627 69.627 0 0 1-2.183 1.955 9.3 9.3 0 0 1-1.21.92 2.884 2.884 0 0 1-1.596.12 10.922 10.922 0 0 1-2.824-.893 5.193 5.193 0 0 1-2.301-1.774 3.368 3.368 0 0 0 1.102.917 8.059 8.059 0 0 0 1.302.611 10.518 10.518 0 0 0 2.777.648 2.565 2.565 0 0 0 1.266-.128 9.393 9.393 0 0 0 1.065-.894c.7-.657 1.389-1.34 2.063-2.035l4.058-4.173.998-1.053a3.433 3.433 0 0 0 .705-1.083 10.749 10.749 0 0 0 .72-2.678 11.881 11.881 0 0 0 .177-2.771c-.017-.1-.022-.223-.045-.302l-.03-.125c-.01-.032-.011-.014-.007-.03.016.02-.042-.048.054.047a.4.4 0 0 0 .189.083c.07.007.082-.003.07.002a.648.648 0 0 0-.089.031 3.15 3.15 0 0 0-.281.134c-.4.215-.807.473-1.207.735-1.61 1.054-3.164 2.22-4.75 3.334Z" fill="#161615"/>
        <path data-name="Path 18" d="M1.883 278.034a10.488 10.488 0 0 0 4.95 4.294 9.674 9.674 0 0 0 3.173.687 17.487 17.487 0 0 0 3.304-.115 22.755 22.755 0 0 0 6.401-1.767c1.038-.427 2.057-.92 3.071-1.424 1.033-.475 2.047-1 3.093-1.448a53.857 53.857 0 0 1-5.838 3.576 19.2 19.2 0 0 1-6.612 2.064 17.343 17.343 0 0 1-3.493.062 9.276 9.276 0 0 1-3.412-.927 9.945 9.945 0 0 1-2.816-2.083 9.266 9.266 0 0 1-1.82-2.92Z" fill="#161615"/>
        <path data-name="Path 19" d="M18.071 273.027a8.359 8.359 0 0 0 4.096 3.356 10.557 10.557 0 0 0 5.227.587 21.512 21.512 0 0 0 5.135-1.429 41.813 41.813 0 0 0 4.82-2.431c3.117-1.823 6.17-3.79 9.107-5.923a222.91 222.91 0 0 0 8.711-6.556l-.063.105a7.835 7.835 0 0 0 .064-2.214 14.557 14.557 0 0 0-.409-2.229 12.081 12.081 0 0 1 .618 2.201 8.042 8.042 0 0 1 .102 2.322l-.007.055-.057.049q-4.056 3.682-8.442 6.976a84.713 84.713 0 0 1-9.148 6.06c-3.193 1.743-6.603 3.446-10.365 3.731a10.772 10.772 0 0 1-5.475-.893 8.2 8.2 0 0 1-3.914-3.767Z" fill="#161615"/>
        <path data-name="Path 20" d="M57.044 259.627c2.73-1.312 5.493-2.522 8.278-3.708s5.583-2.312 8.397-3.415c2.824-1.077 5.648-2.153 8.531-3.09.726-.233 1.434-.464 2.202-.653.197-.047.384-.096.515-.142a1.032 1.032 0 0 0 .406-.206 1.582 1.582 0 0 0 .499-.813 8.914 8.914 0 0 0-.325-4.375 11.478 11.478 0 0 1 .704 2.171 5.865 5.865 0 0 1 .102 2.334 2.063 2.063 0 0 1-.605 1.116 2.891 2.891 0 0 1-1.138.537c-.688.215-1.402.496-2.1.765l-8.427 3.298c-2.82 1.079-5.635 2.17-8.477 3.193s-5.68 2.058-8.562 2.988Z" fill="#161615"/>
        <path data-name="Path 21" d="m88.646 248.337 13.506.219c4.5.07 9.003.124 13.494.046 1.122-.03 2.244-.058 3.354-.132.568-.027 1.074-.107 1.654-.153.297-.02.597-.06.892-.063l.88.03a38.659 38.659 0 0 1 6.662 1.513 74.409 74.409 0 0 0 13.11 2.81 63.253 63.253 0 0 0 6.689.414 74.602 74.602 0 0 0 13.371-.973c2.21-.363 4.39-.846 6.602-1.32a7.861 7.861 0 0 1 1.747-.22 8.7 8.7 0 0 1 1.75.184 15.163 15.163 0 0 1 3.261 1.124 14.878 14.878 0 0 1 2.935 1.797 7.35 7.35 0 0 1 .651.596c.19.184.381.37.604.542.42.356.869.695 1.316 1.028 1.793 1.345 3.667 2.594 5.573 3.78a53.442 53.442 0 0 0 2.92 1.683 11.126 11.126 0 0 0 3.114 1.244 11.166 11.166 0 0 1-3.182-1.108c-1.017-.49-2.008-1.038-2.988-1.588a80.47 80.47 0 0 1-5.728-3.61c-.465-.325-.92-.659-1.366-1.02a8.667 8.667 0 0 1-.661-.577 6.6 6.6 0 0 0-.606-.533 14.3 14.3 0 0 0-2.847-1.663c-2.011-.872-4.226-1.518-6.326-.909a76.4 76.4 0 0 1-26.94 2.124 75.424 75.424 0 0 1-13.248-2.933 38.167 38.167 0 0 0-6.479-1.523l-.805-.036c-.265 0-.528.037-.79.052-.545.036-1.153.13-1.711.14-1.137.054-2.267.058-3.397.066-9.025-.039-18.02-.478-27.011-1.03Z" fill="#161615"/>
        <path data-name="Path 22" d="M214.267 238.774a48.716 48.716 0 0 0-14.428 13.06 84.454 84.454 0 0 0-5.25 8.257c-.813 1.416-1.559 2.869-2.435 4.269a18.009 18.009 0 0 1-3.179 3.79c-2.433 2.231-5.099 4.136-7.674 6.141s-5.147 4.028-7.694 6.075c-5.09 4.1-10.147 8.247-15.067 12.544-1.225 1.076-2.448 2.162-3.61 3.292a34.264 34.264 0 0 0-3.174 3.665 40.371 40.371 0 0 0-5.08 8.258 18.621 18.621 0 0 0-1.836 9.32c.016.197.023.396.045.593l.125.581.25 1.162a22.417 22.417 0 0 0 .887 2.205 16.883 16.883 0 0 0 2.662 3.947 8.986 8.986 0 0 0 3.93 2.446 10.245 10.245 0 0 0 4.66.167 22.386 22.386 0 0 0 4.588-1.401 17.726 17.726 0 0 0 4.189-2.306 93.119 93.119 0 0 0 7.479-6.256c2.415-2.192 4.784-4.44 7.12-6.72s4.676-4.563 6.979-6.878c2.316-2.303 4.548-4.687 6.9-6.981s4.775-4.504 7.316-6.59a49.841 49.841 0 0 1 8.149-5.591 101.762 101.762 0 0 0 16.94-9.723c1.329-.94 2.64-1.909 3.88-2.948.302-.262.613-.524.902-.8s.57-.554.91-.836c.654-.568 1.33-1.006 2.004-1.487l8.135-5.482a148.468 148.468 0 0 0 15.475-11.967c1.186-1.115 2.41-2.196 3.524-3.384.565-.586 1.147-1.157 1.698-1.755l1.602-1.842.797-.925.733-.974 1.465-1.95c.846-1.388 1.759-2.722 2.531-4.171l9.675-17.07 4.913-8.491 2.515-4.211a42.987 42.987 0 0 1 2.715-4.083 42.782 42.782 0 0 0-2.662 4.115l-2.46 4.242-4.807 8.55-9.457 17.189c-.75 1.447-1.686 2.818-2.532 4.227l-1.471 1.979-.734.985-.8.936-1.609 1.866c-.553.606-1.138 1.184-1.705 1.777-1.117 1.204-2.34 2.299-3.533 3.422a149.025 149.025 0 0 1-15.488 12.087l-8.112 5.513c-.653.468-1.35.932-1.927 1.44a12.057 12.057 0 0 0-.893.826c-.302.29-.618.554-.928.832-1.262 1.067-2.578 2.05-3.914 3.005a102.552 102.552 0 0 1-16.996 9.86 49.083 49.083 0 0 0-7.973 5.526c-2.507 2.075-4.903 4.286-7.228 6.57s-4.55 4.682-6.862 6.999q-3.452 3.498-6.967 6.923a277.068 277.068 0 0 1-7.177 6.712 93.809 93.809 0 0 1-7.589 6.291 18.728 18.728 0 0 1-4.385 2.39 23.165 23.165 0 0 1-4.78 1.433 11.111 11.111 0 0 1-5.05-.21 9.841 9.841 0 0 1-4.292-2.692 17.669 17.669 0 0 1-2.788-4.163 22.837 22.837 0 0 1-.931-2.345l-.258-1.233-.13-.618c-.023-.208-.03-.42-.043-.625a19.366 19.366 0 0 1 1.94-9.7 41.006 41.006 0 0 1 5.204-8.39 34.864 34.864 0 0 1 3.256-3.724c1.187-1.144 2.416-2.225 3.648-3.304 4.952-4.287 10.028-8.415 15.139-12.498q3.836-3.056 7.728-6.047c2.597-1.992 5.253-3.903 7.672-6.071a17.508 17.508 0 0 0 3.148-3.665c.877-1.36 1.645-2.81 2.477-4.22a84.837 84.837 0 0 1 5.374-8.222 48.832 48.832 0 0 1 14.629-12.918Z" fill="#161615"/>
        <path data-name="Path 23" d="M287.087 212.897c10.611-1.493 21.266-2.667 31.973-3.413a173.951 173.951 0 0 1 16.091-.437c5.349.055 10.707.037 16.062.009l32.136-.139 16.067-.094c5.357-.026 10.71-.025 16.065-.185-10.698.65-21.417.804-32.128 1.05q-16.07.31-32.142.368c-5.358-.002-10.715-.015-16.079-.101-5.352-.15-10.683.02-16.033.29s-10.682.682-16.016 1.144c-5.334.439-10.666.966-15.996 1.508Z" fill="#161615"/>
        <path data-name="Path 24" d="M192.928 250.573c.29 1.38.416 2.692.655 3.979a17.468 17.468 0 0 0 .412 1.894 10.613 10.613 0 0 0 .733 1.855 3.791 3.791 0 0 1-1.46-1.553 6.675 6.675 0 0 1-.68-2.024 8.67 8.67 0 0 1-.103-2.1 6.708 6.708 0 0 1 .443-2.051Z" fill="#161615"/>
        <path data-name="Path 25" d="M95.11 249.486a35.2 35.2 0 0 1-5.608 4.182c-.503.296-1.01.59-1.53.866-.273.13-.525.266-.818.386a1.6 1.6 0 0 1-1.095.171 2.953 2.953 0 0 1-1.476-1.256 7.352 7.352 0 0 1-.815-1.58c.394.439.774.876 1.193 1.259a2.813 2.813 0 0 0 1.258.806 3.879 3.879 0 0 0 1.288-.62l1.475-.895a55.193 55.193 0 0 1 6.128-3.319Z" fill="#161615"/>
        <path data-name="Path 26" d="M85.385 255.644c-2.107 2.584-4.342 5.064-6.628 7.484a81.01 81.01 0 0 1-7.267 6.916c-.321.271-.666.522-1.017.77a9.088 9.088 0 0 1-1.098.706 17.214 17.214 0 0 1-2.334 1.045 24.287 24.287 0 0 1-4.904 1.286 11.763 11.763 0 0 1-5.088-.186 7.37 7.37 0 0 1-2.178-1.338 4.309 4.309 0 0 1-1.48-2.007 4.573 4.573 0 0 0 1.643 1.795 7.015 7.015 0 0 0 2.159 1.077 11.284 11.284 0 0 0 4.81-.106 27.78 27.78 0 0 0 4.691-1.412 17.944 17.944 0 0 0 2.207-1.018 8.241 8.241 0 0 0 .99-.654c.325-.235.652-.478.967-.745 2.557-2.06 4.93-4.402 7.349-6.675Z" fill="#161615"/>
        <path data-name="Path 27" d="m58.732 260.286-2.008 2.288-2.019 2.268c-.661.755-1.326 1.54-1.897 2.312a1.154 1.154 0 0 0-.303 1.047 2.132 2.132 0 0 0 .637.998l-.797.302a2.358 2.358 0 0 1 .583-1.258 2.432 2.432 0 0 1 1.21-.625 4.052 4.052 0 0 1 1.23-.068 6.319 6.319 0 0 1 1.178.205l-.507.147a160.49 160.49 0 0 1 4.328-4.69 127.6 127.6 0 0 1 4.484-4.552 127.495 127.495 0 0 1-3.954 5.018 169.522 169.522 0 0 1-4.115 4.88l-.2.228-.31-.079a4.523 4.523 0 0 0-1.92-.102 1.468 1.468 0 0 0-.718.34 1.381 1.381 0 0 0-.322.697l-.185.88-.615-.574a2.886 2.886 0 0 1-.925-1.552 1.987 1.987 0 0 1 .059-.978 2.547 2.547 0 0 1 .458-.783 25.507 25.507 0 0 1 2.114-2.25c.732-.708 1.45-1.425 2.216-2.094s1.509-1.369 2.298-2.005Z" fill="#161615"/>
        <path data-name="Path 28" d="M29.945 261.876c-1.833 2.218-3.757 4.35-5.73 6.44a55.35 55.35 0 0 1-3.064 3.072 2.719 2.719 0 0 1-1.068.676 3.439 3.439 0 0 1-1.243.118 4.259 4.259 0 0 1-1.19-.257 2.567 2.567 0 0 1-.595-.317 1.223 1.223 0 0 1-.305-.311.745.745 0 0 1-.124-.266.609.609 0 0 1 .013-.434 2.512 2.512 0 0 1 .379-.585l.361-.43.74-.807c.497-.526 1-1.044 1.514-1.549 1.035-1.003 2.068-2.003 3.153-2.951s2.165-1.896 3.296-2.795a11.093 11.093 0 0 1 1.824-1.206 3.14 3.14 0 0 1 1.06-.321.754.754 0 0 1 .868.541.681.681 0 0 0-.848-.393 2.987 2.987 0 0 0-.95.405 10.761 10.761 0 0 0-1.63 1.35 89.005 89.005 0 0 0-3.084 2.98l-3.007 3.06-1.475 1.547-.705.788-.327.397c-.094.112-.219.306-.219.306a.23.23 0 0 0 .015-.135c-.002-.024.002-.026-.002-.04-.015-.029-.014-.029-.01-.026s.034.038.073.07a1.583 1.583 0 0 0 .351.187 3.255 3.255 0 0 0 .905.204 2.494 2.494 0 0 0 .888-.069 1.946 1.946 0 0 0 .728-.466c1.069-.905 2.086-1.93 3.138-2.895l3.114-2.972c1.052-.957 2.084-1.956 3.156-2.916Z" fill="#161615"/>
        <path data-name="Path 29" d="M29.69 258.754c3.03-3.42 6.138-6.77 9.373-10.01.82-.8 1.642-1.594 2.535-2.336a29.226 29.226 0 0 1 2.875-1.919l5.804-3.647c3.862-2.443 7.763-4.826 11.646-7.238 1.919-1.208 3.94-2.394 5.775-3.62 1.854-1.298 3.678-2.708 5.683-3.889a14.18 14.18 0 0 1 3.237-1.45c1.151-.288 2.264-.477 3.395-.693 2.252-.408 4.509-.782 6.764-1.15 4.513-.722 9.027-1.442 13.557-2.049 4.523-.633 9.075-1.181 13.628-1.555l6.826-.59a95.13 95.13 0 0 0 3.401-.376 19.425 19.425 0 0 0 3.355-.641 37.225 37.225 0 0 1-6.727 1.283l-6.805.815c-4.543.475-9.054 1.107-13.564 1.833l-13.52 2.186c-2.25.383-4.498.77-6.737 1.192-1.111.22-2.25.423-3.314.697a13.454 13.454 0 0 0-2.987 1.368c-1.939 1.123-3.752 2.503-5.645 3.812-1.974 1.295-3.904 2.406-5.858 3.618-3.902 2.37-7.782 4.766-11.708 7.109l-5.872 3.525a29.125 29.125 0 0 0-2.858 1.822c-.882.697-1.715 1.479-2.551 2.247-3.331 3.11-6.512 6.392-9.708 9.656Z" fill="#161615"/>
        <path data-name="Path 30" d="m186.24 200.366-3.723 1.392c-1.245.45-2.485.905-3.714 1.388a55.069 55.069 0 0 0-7.176 3.176c-2.35 1.285-4.743 2.417-7.175 3.483l-3.657 1.561c-1.236.482-2.46.99-3.714 1.432 1.158-.65 2.341-1.248 3.507-1.88l3.53-1.814c2.342-1.226 4.726-2.385 7.014-3.66a39.562 39.562 0 0 1 7.417-3.03 78.76 78.76 0 0 1 7.691-2.048Z" fill="#161615"/>
        <path data-name="Path 31" d="M168.536 194.512c-1.32.22-2.603.497-3.869.799a21.663 21.663 0 0 0-3.658 1.21c-.56.246-1.196.575-1.82.82a17.266 17.266 0 0 1-1.932.611 14 14 0 0 1-3.99.441c1.296-.331 2.54-.75 3.76-1.195a34.748 34.748 0 0 0 3.573-1.599 14.332 14.332 0 0 1 3.927-1.062 15.569 15.569 0 0 1 4.01-.025Z" fill="#161615"/>
        <path data-name="Path 32" d="M81.65 231.39a11.22 11.22 0 0 1-2.347-1.98 33.52 33.52 0 0 1-.982-1.114 7.017 7.017 0 0 0-1.035-1.079 2.353 2.353 0 0 1 1.55.484 6.735 6.735 0 0 1 1.203 1.018 6.969 6.969 0 0 1 1.61 2.67Z" fill="#161615"/>
        <path data-name="Path 55" d="M191.287 296.303a16.362 16.362 0 0 0-15.52-9.47" fill="none" stroke="#161615" stroke-miterlimit="10"/>
        <path data-name="Path 56" d="M159.577 326.881a37.182 37.182 0 0 0 5.73-5.334 19.273 19.273 0 0 0 2.263-3.14 9.108 9.108 0 0 0 1.255-3.548 6.477 6.477 0 0 0-.587-3.59 7.712 7.712 0 0 0-2.41-2.786 11.3 11.3 0 0 0-3.373-1.661 8.128 8.128 0 0 0-3.643-.341 9.715 9.715 0 0 0-3.284 1.69 27.278 27.278 0 0 0-2.975 2.47 26.417 26.417 0 0 0-2.62 2.841 16.419 16.419 0 0 0-1.08 1.57c-.167.265-.288.55-.437.825a4.378 4.378 0 0 0-.264.844l-.054.419.01.486c.013.32.02.644.046.968a14.314 14.314 0 0 0 .258 1.905 8.851 8.851 0 0 0 1.452 3.5 7.269 7.269 0 0 0 2.936 2.395 12.943 12.943 0 0 0 3.787.903 11.8 11.8 0 0 1-3.89-.656 7.652 7.652 0 0 1-3.23-2.344 9.32 9.32 0 0 1-1.681-3.654 14.98 14.98 0 0 1-.34-1.981 23.487 23.487 0 0 1-.086-.996l-.027-.498c.005-.177.029-.371.044-.559a8.773 8.773 0 0 1 1.858-3.655 27.347 27.347 0 0 1 2.677-2.97 28.139 28.139 0 0 1 3.047-2.592 17.345 17.345 0 0 1 1.692-1.102 6.71 6.71 0 0 1 1.96-.794 9.047 9.047 0 0 1 4.12.412 12.242 12.242 0 0 1 3.635 1.844 8.587 8.587 0 0 1 2.648 3.144 6.9 6.9 0 0 1 .569 4.07 9.788 9.788 0 0 1-1.461 3.759 19.237 19.237 0 0 1-2.444 3.147 33.76 33.76 0 0 1-6.101 5.01Z" fill="#161615"/>
    </g>
</svg>