<svg xmlns="http://www.w3.org/2000/svg" width="8.188" height="11.586" viewBox="0 0 8.188 11.586">
  <path id="Label" d="M5.469-11.586a6.994,6.994,0,0,1,1.645.188,8.961,8.961,0,0,1,1.4.453l-.727,1.8A7.865,7.865,0,0,0,6.7-9.512a4.241,4.241,0,0,0-1.035-.137,1.38,1.38,0,0,0-.891.3A1.267,1.267,0,0,0,4.4-8.3V-6.8h2.93v1.711H4.4v1.117a2.186,2.186,0,0,1-.18.945,1.856,1.856,0,0,1-.449.609,2.919,2.919,0,0,1-.551.383H8.828V0H.641V-1.937A3.947,3.947,0,0,0,1.4-2.363a1.5,1.5,0,0,0,.48-.605,2.433,2.433,0,0,0,.168-.984V-5.086H.656V-6.8H2.047V-8.32a3.43,3.43,0,0,1,.465-1.895,2.708,2.708,0,0,1,1.242-1.043A4.366,4.366,0,0,1,5.469-11.586Z" transform="translate(-0.641 11.586)" fill="#782181"/>
</svg>
