<svg xmlns="http://www.w3.org/2000/svg" width="21.979" height="33.342" viewBox="0 0 21.979 33.342"><g transform="translate(-361.772 -782.829)"><path d="M1228.739,521.715l-.8-.114-2.044-.134-.052-.086,1.228-.319a.176.176,0,0,0,.13-.149l.088-.724.715-.337a.164.164,0,0,0,.061-.049l.417-.517c.058-.088,1.427-2.161.447-3.134a2.83,2.83,0,0,0-2.528-.537.177.177,0,0,0-.075.041l-.476.446-.554-.383.452-.807a.171.171,0,0,0,.019-.119l-.185-.959a.173.173,0,0,0-.076-.113l-1.244-.82.788.007h0a.176.176,0,0,0,.161-.247l-.664-1.474-.895-1.128-1.149-.892-.627-1.493-.26-1.11a.169.169,0,0,0-.021-.051l-.539-.882-.987-1.35a.177.177,0,0,0-.068-.056l-.877-.4a.166.166,0,0,0-.1-.014l-1.112.2-.646-.363c.38-.086.707-.157.74-.164.063.014.11.027,1.388-.5a.175.175,0,0,0,.051-.292l-.5-.454a5.326,5.326,0,0,0,1.607-2.329c.017-.225.124-.851.417-1.038a.6.6,0,0,0,.314-.575.786.786,0,0,0-.517-.618,1.063,1.063,0,0,0-.885.11c-.167-.021-.744-.107-.745-.108l-.99-.158-.526-.322a.169.169,0,0,0-.134-.021.179.179,0,0,0-.109.08l-.327.535-.8.116.169-.72.141-.235,1.176-.843.6-.492a.178.178,0,0,0,.054-.075l.235-.631a.171.171,0,0,0,0-.113l-.2-.631a.177.177,0,0,0-.123-.118l-.481-.126a.186.186,0,0,0-.112.008l-.607.254-1.56.292-.725-.353a.175.175,0,0,0-.224.061l-.519.782a.175.175,0,0,0,0,.184l.238.41-.663.232a.178.178,0,0,0-.1.1.175.175,0,0,0,0,.144l.458.927c-.888-.049-.939.019-.993.084a7.947,7.947,0,0,0-.512,1.522.173.173,0,0,0,.034.163l.4.471-.1.833-.643,1.452a.175.175,0,0,0,.035.193l.6.618a.189.189,0,0,0,.15.051.175.175,0,0,0,.131-.089c.282-.509.6-1.059.757-1.322.043.055.094.121.142.185l-.558,1.83-.658.89a.184.184,0,0,0-.032.076l-.342,2.119a.177.177,0,0,0,.034.134.175.175,0,0,0,.121.068l.87.095a.162.162,0,0,0,.191-.134l.324-1.375.5.2.322,1.087-.494.7a.169.169,0,0,0-.026.052l-.346,1.2a.183.183,0,0,0,0,.1l.333,1.123a.178.178,0,0,0,.206.122l1.086-.227a.177.177,0,0,0,.112-.078l.311-.487.8.1a.18.18,0,0,0,.156-.06c.247-.291.523-.606.666-.762.088.081.219.208.349.335l-.795,1.025a.175.175,0,0,0-.035.085l-.16,1.261a.174.174,0,0,0,.04.135l.567.668a.177.177,0,0,0,.173.058l.886-.2-.229,1.5-.321,1.06a.175.175,0,0,0,.078.2l.51.3-.194.41-.819-.236a.166.166,0,0,0-.056-.007l-1.3.051-.609-.036-.682-.4a.176.176,0,0,0-.26.1l-.173.613a.173.173,0,0,0,.041.168l.3.314-.252.292-.439.3a.174.174,0,0,0-.058.221l.2.4a.177.177,0,0,0,.207.092l.925-.262.1.582.136,1.073-.8.616-1.135.419a.181.181,0,0,0-.043.023l-.74.542a.176.176,0,0,0-.068.177c.061.3.128.632.132.67,0,.1,0,.157.7.522a.183.183,0,0,0,.155,0l.728-.329.776-.089.66.525.543.5a.177.177,0,0,0,.112.047l1.062.051a.206.206,0,0,0,.145-.065l.262-.324.757-.232-.815,1.418-.723,0-1.432-.214a.18.18,0,0,0-.13.032l-.963.694a.182.182,0,0,0-.053.06l-.481.909-1.128,1.091-.7.84-.965.463a.179.179,0,0,0-.1.119.176.176,0,0,0,.035.149l.4.492a.175.175,0,0,0,.126.065l.969.063h.012a.177.177,0,0,0,.145-.075l.615-.878.6-.37,1.131.011.915.45a.179.179,0,0,0,.222-.056l.691-.971a.174.174,0,0,0,.031-.082l.072-.626,1.064-.182,1.29.773a.176.176,0,0,0,.159.012l.938-.391a.174.174,0,0,0,.074-.059l.494-.676,1.246-.06,1.406.152,1.307-.124.9.184a.175.175,0,0,0,.142-.033l1.075-.824,1-.644a.178.178,0,0,0,.069-.084l.3-.757a.176.176,0,0,0-.14-.237Z" transform="translate(-845.527 288.911)" fill="#782181"/><path d="M1120.92,790.683a.176.176,0,0,0,.138-.153l.045-.423.412-.2a.175.175,0,0,0,.08-.079l.259-.508a.173.173,0,0,0-.028-.2l-.413-.438c-.158-.117-.267-.2-.343-.25.081-.092.2-.219.3-.33a.177.177,0,0,0,.039-.174l-.12-.369a.188.188,0,0,0-.026-.05l-.4-.537-.253-.405-.555-.69a.178.178,0,0,0-.122-.065.172.172,0,0,0-.132.042l-.337.293-.753.169a.166.166,0,0,0-.043.016l-.462.25-.4.1a.18.18,0,0,0-.1.069l-.53.747-.222.416a.173.173,0,0,0-.012.137l.1.309-.558.1a.175.175,0,0,0-.107.063l-.342.426a.175.175,0,0,0-.034.149l.157.688a.175.175,0,0,0,.084.112l.889.513a.168.168,0,0,0,.1.023l.694-.047a.176.176,0,0,0,.161-.139l.167-.8.375-.017.246.443.079.555a.176.176,0,0,0,.035.083l.259.331a.176.176,0,0,0,.139.068.172.172,0,0,0,.1-.032l.371-.26.25.175a.174.174,0,0,0,.138.028Z" transform="translate(-754.231 9.716)" fill="#782181"/></g></svg>